# xmcd
#
# Track frame offsets:
#	150
#	40019
#	76782
#
# Disc length: 1400 seconds
# Revision: 3
# Processed by: cddbd v1.5.2PL0 Copyright (c) Steve Scherf et al.
# Submitted via: dBpowerAMP V12.0
#
DISCID=13057603
DTITLE=Lester Levenson - Private Lessons with Lester CD 04
DYEAR=1986
DGENRE=Home Study
TTITLE0=Going Free
TTITLE1=Freedom Is Eternal
TTITLE2=Religion
EXTD=
EXTT0=
EXTT1=
EXTT2=
PLAYORDER=
